<svg xmlns="http://www.w3.org/2000/svg" xmlns:xlink="http://www.w3.org/1999/xlink" width="500" height="500" viewBox="0 0 500 500"><defs><filter id="a" x="312.259" y="234.147" width="54" height="49.5" filterUnits="userSpaceOnUse"><feOffset dy="3" input="SourceAlpha"/><feGaussianBlur stdDeviation="3" result="b"/><feFlood flood-color="#b7b9bc"/><feComposite operator="in" in2="b"/><feComposite in="SourceGraphic"/></filter></defs><g transform="translate(-107 -74)"><rect width="500" height="500" transform="translate(107 74)" fill="#fcfffd"/><g transform="translate(184.606 128.446)"><path d="M27,0H3A3,3,0,0,0,.015,3L0,30l6-6H27a3.009,3.009,0,0,0,3-3V3A3.009,3.009,0,0,0,27,0ZM6,10.5H24v3H6ZM18,18H6V15H18Zm6-9H6V6H24Z" transform="translate(0 100.944) rotate(-42)" fill="rgba(183,185,188,0.37)"/><path d="M0,0V22.5L4.5,18H9V4.5H22.5V0ZM13.5,9V27h18L36,31.5V9Z" transform="translate(244.472 109.6)" fill="rgba(183,185,188,0.37)"/><path d="M9.93,16.185a22.723,22.723,0,0,0,9.885,9.885l3.3-3.3a1.491,1.491,0,0,1,1.53-.36A17.11,17.11,0,0,0,30,23.265a1.5,1.5,0,0,1,1.5,1.5V30A1.5,1.5,0,0,1,30,31.5,25.5,25.5,0,0,1,4.5,6,1.5,1.5,0,0,1,6,4.5h5.25A1.5,1.5,0,0,1,12.75,6a17.041,17.041,0,0,0,.855,5.355,1.505,1.505,0,0,1-.375,1.53l-3.3,3.3Z" transform="translate(76.84 360.312)" fill="rgba(183,185,188,0.37)"/><path d="M22.575,7.5A7.5,7.5,0,0,1,28.5,13.425M22.575,1.5A13.5,13.5,0,0,1,34.5,13.41M33,25.38v4.5a3,3,0,0,1-3.27,3,29.685,29.685,0,0,1-12.945-4.6,29.25,29.25,0,0,1-9-9A29.685,29.685,0,0,1,3.18,6.27,3,3,0,0,1,6.165,3h4.5a3,3,0,0,1,3,2.58A19.26,19.26,0,0,0,14.715,9.8a3,3,0,0,1-.675,3.165l-1.905,1.9a24,24,0,0,0,9,9l1.9-1.905a3,3,0,0,1,3.165-.675,19.26,19.26,0,0,0,4.215,1.05A3,3,0,0,1,33,25.38Z" transform="translate(242.372 0.554)" fill="rgba(183,185,188,0.37)" stroke="rgba(183,185,188,0.37)" stroke-linecap="round" stroke-linejoin="round" stroke-width="3"/><path d="M23.727,16.313a4.219,4.219,0,1,0-4.3-4.219A4.27,4.27,0,0,0,23.727,16.313Zm-11.454,0a4.219,4.219,0,1,0-4.3-4.219A4.27,4.27,0,0,0,12.273,16.313Zm0,3.094c-3.365,0-10.023,1.617-10.023,4.922v3.8H22.5v-3.8C22.5,21.023,15.638,19.406,12.273,19.406Zm11.454.774a7.641,7.641,0,0,0-1.227.07c1.647,1.2,2.25,1.969,2.25,4.078v3.8h9v-3.8C33.75,21.023,27.092,20.18,23.727,20.18Z" transform="translate(283.072 202.631)" fill="rgba(183,185,188,0.37)"/><path d="M24.75,0c-2.3,0-4.275,1.575-5.49,3.96a14.838,14.838,0,0,1,3.24,9.585,15.874,15.874,0,0,1-.405,3.645,5.292,5.292,0,0,0,2.655.855c3.735,0,6.75-4.05,6.75-9s-3.015-9-6.75-9ZM11.25,4.5c-3.735,0-6.75,4.05-6.75,9s3.015,9,6.75,9S18,18.45,18,13.5,14.985,4.5,11.25,4.5ZM32.625,18.72a10.252,10.252,0,0,1-7.6,3.78A10.4,10.4,0,0,1,27,28.53V31.5h9V24.03a6.025,6.025,0,0,0-3.375-5.355Zm-29.25,4.5A6.025,6.025,0,0,0,0,28.575v7.47H22.5v-7.47a6.025,6.025,0,0,0-3.375-5.355A10.208,10.208,0,0,1,11.25,27a10.353,10.353,0,0,1-7.875-3.78Z" transform="translate(58.874 241.118)" fill="rgba(183,185,188,0.37)"/><path d="M7.5,4.5,28.5,18,7.5,31.5Z" transform="translate(152.441 221.284)" fill="rgba(183,185,188,0.37)" stroke="rgba(183,185,188,0.37)" stroke-linecap="round" stroke-linejoin="round" stroke-width="3"/><path d="M6.75,3.656V32.344L29.25,18Z" transform="translate(336.472 15.75)" fill="rgba(183,185,188,0.37)"/><path d="M12,15H7.5V10.5h-3V15H0v3H4.5v4.5h3V18H12Zm15,1.5a4.5,4.5,0,1,0-1.365-8.79A7.4,7.4,0,0,1,26.985,12a7.547,7.547,0,0,1-1.35,4.29A4.485,4.485,0,0,0,27,16.5Zm-7.5,0A4.5,4.5,0,1,0,15,12,4.481,4.481,0,0,0,19.5,16.5Zm9.93,3.24A5.55,5.55,0,0,1,31.5,24v3H36V24C36,21.69,32.445,20.265,29.43,19.74ZM19.5,19.5c-3,0-9,1.5-9,4.5v3h18V24C28.5,21,22.5,19.5,19.5,19.5Z" transform="translate(66.874 -7.5)" fill="rgba(183,185,188,0.37)"/><path d="M33.75,29.25v1.125a3.375,3.375,0,0,1-3.375,3.375h-27A3.375,3.375,0,0,1,0,30.375v-18A3.375,3.375,0,0,1,3.375,9H4.5V23.625a5.631,5.631,0,0,0,5.625,5.625Zm6.75-5.625v-18A3.375,3.375,0,0,0,37.125,2.25h-27A3.375,3.375,0,0,0,6.75,5.625v18A3.375,3.375,0,0,0,10.125,27h27A3.375,3.375,0,0,0,40.5,23.625ZM18,9a3.375,3.375,0,1,1-3.375-3.375A3.375,3.375,0,0,1,18,9ZM11.25,19.125l3.9-3.9a.844.844,0,0,1,1.193,0L19.125,18l9.528-9.528a.844.844,0,0,1,1.193,0L36,14.625V22.5H11.25Z" transform="translate(125.942 49.75)" fill="rgba(183,185,188,0.37)"/><path d="M33.75,29.25v1.125a3.375,3.375,0,0,1-3.375,3.375h-27A3.375,3.375,0,0,1,0,30.375v-18A3.375,3.375,0,0,1,3.375,9H4.5V23.625a5.631,5.631,0,0,0,5.625,5.625Zm6.75-5.625v-18A3.375,3.375,0,0,0,37.125,2.25h-27A3.375,3.375,0,0,0,6.75,5.625v18A3.375,3.375,0,0,0,10.125,27h27A3.375,3.375,0,0,0,40.5,23.625ZM18,9a3.375,3.375,0,1,1-3.375-3.375A3.375,3.375,0,0,1,18,9ZM11.25,19.125l3.9-3.9a.844.844,0,0,1,1.193,0L19.125,18l9.528-9.528a.844.844,0,0,1,1.193,0L36,14.625V22.5H11.25Z" transform="translate(285.822 288.191)" fill="rgba(183,185,188,0.37)"/></g><path d="M18,2.25C8.058,2.25,0,8.8,0,16.875a12.981,12.981,0,0,0,4.008,9.19A17.888,17.888,0,0,1,.155,32.8a.559.559,0,0,0-.105.612.551.551,0,0,0,.513.338,16.08,16.08,0,0,0,9.886-3.614A21.444,21.444,0,0,0,18,31.5c9.942,0,18-6.546,18-14.625S27.942,2.25,18,2.25ZM9,19.125a2.25,2.25,0,1,1,2.25-2.25A2.248,2.248,0,0,1,9,19.125Zm9,0a2.25,2.25,0,1,1,2.25-2.25A2.248,2.248,0,0,1,18,19.125Zm9,0a2.25,2.25,0,1,1,2.25-2.25A2.248,2.248,0,0,1,27,19.125Z" transform="translate(297.116 221.936)" fill="#b7b9bc"/><path d="M18,2.25C8.058,2.25,0,8.8,0,16.875a12.981,12.981,0,0,0,4.008,9.19A17.888,17.888,0,0,1,.155,32.8a.559.559,0,0,0-.105.612.551.551,0,0,0,.513.338,16.08,16.08,0,0,0,9.886-3.614A21.444,21.444,0,0,0,18,31.5c9.942,0,18-6.546,18-14.625S27.942,2.25,18,2.25ZM9,19.125a2.25,2.25,0,1,1,2.25-2.25A2.248,2.248,0,0,1,9,19.125Zm9,0a2.25,2.25,0,1,1,2.25-2.25A2.248,2.248,0,0,1,18,19.125Zm9,0a2.25,2.25,0,1,1,2.25-2.25A2.248,2.248,0,0,1,27,19.125Z" transform="translate(388.668 414.853)" fill="rgba(183,185,188,0.37)"/><g transform="matrix(1, 0, 0, 1, 107, 74)" filter="url(#a)"><path d="M18,2.25C8.058,2.25,0,8.8,0,16.875a12.981,12.981,0,0,0,4.008,9.19A17.888,17.888,0,0,1,.155,32.8a.559.559,0,0,0-.105.612.551.551,0,0,0,.513.338,16.08,16.08,0,0,0,9.886-3.614A21.444,21.444,0,0,0,18,31.5c9.942,0,18-6.546,18-14.625S27.942,2.25,18,2.25ZM9,19.125a2.25,2.25,0,1,1,2.25-2.25A2.248,2.248,0,0,1,9,19.125Zm9,0a2.25,2.25,0,1,1,2.25-2.25A2.248,2.248,0,0,1,18,19.125Zm9,0a2.25,2.25,0,1,1,2.25-2.25A2.248,2.248,0,0,1,27,19.125Z" transform="translate(321.26 237.9)" fill="rgba(183,185,188,0.37)"/></g></g></svg>